<svg xmlns="http://www.w3.org/2000/svg" width="64" height="64" fill="#ffffff" viewBox="0 0 24 24">
  <path d="M19.43 12.98c.04-.32.07-.66.07-1s-.03-.68-.07-1l2.11-1.65a.5.5 0 0 0 .11-.64l-2-3.46a.5.5 0 0 0-.61-.22l-2.49 1a7.03 7.03 0 0 0-1.73-1l-.38-2.65A.5.5 0 0 0 14 2h-4a.5.5 0 0 0-.5.42l-.38 2.65c-.63.25-1.21.58-1.73 1l-2.49-1a.5.5 0 0 0-.61.22l-2 3.46a.5.5 0 0 0 .11.64l2.11 1.65c-.04.32-.07.66-.07 1s.03.68.07 1l-2.11 1.65a.5.5 0 0 0-.11.64l2 3.46c.14.24.43.33.68.22l2.49-1c.52.42 1.1.75 1.73 1l.38 2.65c.05.25.25.42.5.42h4c.25 0 .45-.17.5-.42l.38-2.65c.63-.25 1.21-.58 1.73-1l2.49 1c.25.11.54.02.68-.22l2-3.46a.5.5 0 0 0-.11-.64l-2.11-1.65ZM12 15a3 3 0 1 1 0-6 3 3 0 0 1 0 6Z"></path>
</svg>
